<svg width="1200" height="630" viewBox="0 0 1200 630" fill="none" xmlns="http://www.w3.org/2000/svg">
  <rect width="1200" height="630" fill="#090B0C"/>
  <g opacity="0.18" stroke="#78827E">
    <path d="M0 54.5H1200M0 102.5H1200M0 150.5H1200M0 198.5H1200M0 246.5H1200M0 294.5H1200M0 342.5H1200M0 390.5H1200M0 438.5H1200M0 486.5H1200M0 534.5H1200M0 582.5H1200"/>
    <path d="M48.5 0V630M96.5 0V630M144.5 0V630M192.5 0V630M240.5 0V630M288.5 0V630M336.5 0V630M384.5 0V630M432.5 0V630M480.5 0V630M528.5 0V630M576.5 0V630M624.5 0V630M672.5 0V630M720.5 0V630M768.5 0V630M816.5 0V630M864.5 0V630M912.5 0V630M960.5 0V630M1008.5 0V630M1056.5 0V630M1104.5 0V630M1152.5 0V630"/>
  </g>
  <circle cx="824" cy="228" r="313" fill="url(#a)" fill-opacity="0.25"/>
  <g transform="translate(76 70)">
    <rect width="42" height="42" fill="#111516" stroke="#68716F"/>
    <rect x="9" y="24" width="6" height="9" fill="#C7FF68"/>
    <rect x="18" y="10" width="6" height="23" fill="#C7FF68"/>
    <rect x="27" y="17" width="6" height="16" fill="#C7FF68"/>
    <text x="58" y="31" fill="#EDF2EF" font-family="Arial, sans-serif" font-size="28" font-weight="600">Navide</text>
  </g>
  <text x="76" y="238" fill="#C7FF68" font-family="monospace" font-size="16" letter-spacing="2">AN AI-NATIVE ENGINEERING ENVIRONMENT</text>
  <text x="76" y="322" fill="#EDF2EF" font-family="Arial, sans-serif" font-size="64" font-weight="500" letter-spacing="-3">One engineer.</text>
  <text x="76" y="394" fill="#EDF2EF" font-family="Arial, sans-serif" font-size="64" font-weight="500" letter-spacing="-3">An entire AI engineering force.</text>
  <text x="76" y="468" fill="#A3AEAA" font-family="Arial, sans-serif" font-size="22">The engineering instrument for the Agent era.</text>
  <g transform="translate(824 150)">
    <rect x="-72" y="78" width="144" height="78" fill="#111516" stroke="#C7FF68" stroke-opacity="0.65"/>
    <text x="0" y="124" text-anchor="middle" fill="#C7FF68" font-family="monospace" font-size="14">ENGINEER</text>
    <path d="M-72 117C-160 117-150 16-252 16M-72 117C-160 117-150 218-252 218M72 117C160 117 150 16 252 16M72 117C160 117 150 218 252 218" stroke="#87DFD1" stroke-opacity="0.45" stroke-dasharray="6 7"/>
    <g fill="#111516" stroke="#68716F">
      <rect x="-302" y="-9" width="100" height="50"/><rect x="-302" y="193" width="100" height="50"/><rect x="202" y="-9" width="100" height="50"/><rect x="202" y="193" width="100" height="50"/>
    </g>
    <g fill="#A3AEAA" font-family="monospace" font-size="12" text-anchor="middle">
      <text x="-252" y="22">PLAN</text><text x="-252" y="224">BUILD</text><text x="252" y="22">TEST</text><text x="252" y="224">REVIEW</text>
    </g>
  </g>
  <defs><radialGradient id="a"><stop stop-color="#87DFD1"/><stop offset="0.52" stop-color="#C7FF68" stop-opacity="0.32"/><stop offset="1" stop-color="#090B0C" stop-opacity="0"/></radialGradient></defs>
</svg>
